<svg width="624" height="237" viewBox="0 0 624 237" fill="none" xmlns="http://www.w3.org/2000/svg">
<path d="M37.7855 151.142H47.2318V160.588H85.0173V132.249H47.2318V141.695H37.7855V151.142ZM9.44637 160.588H3.34529e-07V141.695H9.44637V122.803H28.3391V113.356H85.0173V85.0173H75.5709V75.5709H47.2318V85.0173H37.7855V94.4637H3.34529e-07V75.5709H9.44637V56.6782H28.3391V47.2318H94.4637V56.6782H113.356V75.5709H122.803V188.927H85.0173V179.481H75.5709V188.927H28.3391V179.481H9.44637V160.588ZM151.179 -6.69057e-06H188.964V188.927H151.179V-6.69057e-06ZM226.805 198.374H236.251V188.927H245.698V179.481H255.144V170.035H245.698V160.588H236.251V151.142H226.805V141.695H217.359V47.2318H255.144V132.249H264.591V141.695H274.037V151.142H283.483V141.695H292.93V132.249H302.376V47.2318H340.161V141.695H330.715V151.142H321.269V160.588H311.822V170.035H302.376V179.481H292.93V188.927H283.483V198.374H274.037V207.82H264.591V217.266H255.144V226.713H245.698V236.159H217.359V207.82H226.805V198.374ZM434.717 37.7855H472.503V75.5709H434.717V37.7855ZM434.717 151.142H472.503V188.927H434.717V151.142ZM510.344 160.588H500.897V132.249H538.683V141.695H548.129V151.142H576.468V141.695H585.915V113.356H576.468V103.91H538.683V75.5709H576.468V66.1246H585.915V47.2318H576.468V37.7855H548.129V47.2318H538.683V56.6782H500.897V28.3391H510.344V9.44635H529.236V-6.69057e-06H595.361V9.44635H614.254V28.3391H623.7V75.5709H614.254V85.0173H604.807V94.4637H614.254V103.91H623.7V160.588H614.254V179.481H595.361V188.927H529.236V179.481H510.344V160.588Z" fill="black"/>
</svg>
